<svg width="138" height="38" viewBox="0 0 138 38" fill="none" xmlns="http://www.w3.org/2000/svg">
<g clip-path="url(#clip0_175_1362)">
<path d="M14.9767 7.56014V2.375H0V38H14.9767V32.8149C11.9087 32.8149 8.96638 31.4844 6.79703 29.1163C4.62764 26.7482 3.40889 23.5365 3.40889 20.1875C3.40889 16.8385 4.62764 13.6267 6.79703 11.2586C8.96638 8.89053 11.9087 7.56014 14.9767 7.56014Z" fill="#2C3131"/>
<path d="M14.9766 8.3125V33.25C18.0975 33.25 21.0906 31.9363 23.2975 29.5979C25.5043 27.2596 26.744 24.0882 26.744 20.7813C26.744 17.4743 25.5043 14.3028 23.2975 11.9645C21.0906 9.62618 18.0975 8.3125 14.9766 8.3125Z" fill="#2C3131"/>
<path d="M43.388 29.248H51.452V34H37.232V8.728H43.388V29.248ZM70.2283 8.728V25.936C70.2283 28.6 69.4723 30.652 67.9603 32.092C66.4723 33.532 64.4563 34.252 61.9123 34.252C59.2483 34.252 57.1123 33.496 55.5043 31.984C53.8963 30.472 53.0923 28.324 53.0923 25.54H59.2123C59.2123 26.596 59.4283 27.4 59.8603 27.952C60.2923 28.48 60.9163 28.744 61.7323 28.744C62.4763 28.744 63.0523 28.504 63.4603 28.024C63.8683 27.544 64.0723 26.848 64.0723 25.936V8.728H70.2283ZM94.4608 16.864C94.4608 18.328 94.1248 19.672 93.4528 20.896C92.7808 22.096 91.7488 23.068 90.3568 23.812C88.9648 24.556 87.2368 24.928 85.1728 24.928H81.3568V34H75.2008V8.728H85.1728C87.1888 8.728 88.8928 9.076 90.2848 9.772C91.6768 10.468 92.7208 11.428 93.4168 12.652C94.1128 13.876 94.4608 15.28 94.4608 16.864ZM84.7048 20.032C85.8808 20.032 86.7568 19.756 87.3328 19.204C87.9088 18.652 88.1968 17.872 88.1968 16.864C88.1968 15.856 87.9088 15.076 87.3328 14.524C86.7568 13.972 85.8808 13.696 84.7048 13.696H81.3568V20.032H84.7048ZM106.81 34.252C104.962 34.252 103.306 33.952 101.842 33.352C100.378 32.752 99.2016 31.864 98.3136 30.688C97.4496 29.512 96.9936 28.096 96.9456 26.44H103.498C103.594 27.376 103.918 28.096 104.47 28.6C105.022 29.08 105.742 29.32 106.63 29.32C107.542 29.32 108.262 29.116 108.79 28.708C109.318 28.276 109.582 27.688 109.582 26.944C109.582 26.32 109.366 25.804 108.934 25.396C108.526 24.988 108.01 24.652 107.386 24.388C106.786 24.124 105.922 23.824 104.794 23.488C103.162 22.984 101.83 22.48 100.798 21.976C99.7656 21.472 98.8776 20.728 98.1336 19.744C97.3896 18.76 97.0176 17.476 97.0176 15.892C97.0176 13.54 97.8696 11.704 99.5736 10.384C101.278 9.04 103.498 8.368 106.234 8.368C109.018 8.368 111.262 9.04 112.966 10.384C114.67 11.704 115.582 13.552 115.702 15.928H109.042C108.994 15.112 108.694 14.476 108.142 14.02C107.59 13.54 106.882 13.3 106.018 13.3C105.274 13.3 104.674 13.504 104.218 13.912C103.762 14.296 103.534 14.86 103.534 15.604C103.534 16.42 103.918 17.056 104.686 17.512C105.454 17.968 106.654 18.46 108.286 18.988C109.918 19.54 111.238 20.068 112.246 20.572C113.278 21.076 114.166 21.808 114.91 22.768C115.654 23.728 116.026 24.964 116.026 26.476C116.026 27.916 115.654 29.224 114.91 30.4C114.19 31.576 113.134 32.512 111.742 33.208C110.35 33.904 108.706 34.252 106.81 34.252Z" fill="#2C3131"/>
</g>
<defs>
<clipPath id="clip0_175_1362">
<rect width="138" height="38" fill="white"/>
</clipPath>
</defs>
</svg>
